{
  "source": "C:\\Users\\Peter\\Desktop\\stuff\\MIUN\\quantitative_research\\video_compression\\videos\\BVI-HD\\BVI-HD_CDVL_videos\\ORIG\\Fountain_1920x1080_50fps.mp4",
  "output": "C:\\Users\\Peter\\Desktop\\stuff\\MIUN\\quantitative_research\\video_compression\\compressed_videos\\BVI-HD\\av1\\3\\Fountain_1920x1080_50fps_av1.mkv",
  "codec": "av1",
  "ok": "Input #0, mov,mp4,m4a,3gp,3g2,mj2, from 'C:\\Users\\Peter\\Desktop\\stuff\\MIUN\\quantitative_research\\video_compression\\videos\\BVI-HD\\BVI-HD_CDVL_videos\\ORIG\\Fountain_1920x1080_50fps.mp4':\n  Metadata:\n    major_brand     : isom\n    minor_version   : 512\n    compatible_brands: isomiso2avc1mp41\n    encoder         : Lavf54.28.101\n  Duration: 00:00:05.00, start: 0.000000, bitrate: 603457 kb/s\n  Stream #0:0[0x1](und): Video: h264 (High 4:4:4 Predictive) (avc1 / 0x31637661), yuv420p(progressive), 1920x1080, 603453 kb/s, 50 fps, 50 tbr, 50 tbn (default)\n    Metadata:\n      handler_name    : VideoHandler\n      vendor_id       : [0][0][0][0]\n[out#0/matroska @ 00000165c27de9c0] Codec AVOption b:a (set bitrate (in bits/s)) has not been used for any stream. The most likely reason is either wrong type (e.g. a video option with no video streams) or that it is a private option of some decoder which was not actually used for any stream.\nStream mapping:\n  Stream #0:0 -> #0:0 (h264 (native) -> av1 (libsvtav1))\nPress [q] to stop, [?] for help\nSvt[info]: -------------------------------------------\nSvt[info]: SVT [version]:\tSVT-AV1 Encoder Lib v3.1.0-19-g6ecfe8ec\nSvt[info]: SVT [build]  :\tGCC 15.2.0\t 64 bit\nSvt[info]: LIB Build date: Aug 17 2025 11:37:13\nSvt[info]: -------------------------------------------\nSvt[info]: Level of Parallelism: 5\nSvt[info]: Number of PPCS 93\nSvt[info]: [asm level on system : up to avx2]\nSvt[info]: [asm level selected : up to avx2]\nSvt[info]: -------------------------------------------\nSvt[info]: SVT [config]: main profile\ttier (auto)\tlevel (auto)\nSvt[info]: SVT [config]: width / height / fps numerator / fps denominator \t\t: 1920 / 1080 / 50 / 1\nSvt[info]: SVT [config]: bit-depth / color format \t\t\t\t\t: 8 / YUV420\nSvt[info]: SVT [config]: preset / tune / pred struct \t\t\t\t\t: 4 / PSNR / random access\nSvt[info]: SVT [config]: gop size / mini-gop size / key-frame type \t\t\t: 321 / 16 / key frame\nSvt[info]: SVT [config]: BRC mode / target bitrate (kbps)\t\t\t\t: VBR / 3000 \nSvt[info]: SVT [config]: AQ mode / Variance Boost \t\t\t\t\t: 2 / 0\nSvt[info]: SVT [config]: sharpness / luminance-based QP bias \t\t\t\t: 0 / 0\nSvt[info]: SVT [config]: QP scale compress strength \t\t\t\t\t: 0\nSvt[info]: -------------------------------------------\nOutput #0, matroska, to 'C:\\Users\\Peter\\Desktop\\stuff\\MIUN\\quantitative_research\\video_compression\\compressed_videos\\BVI-HD\\av1\\3\\Fountain_1920x1080_50fps_av1.mkv':\n  Metadata:\n    major_brand     : isom\n    minor_version   : 512\n    compatible_brands: isomiso2avc1mp41\n    encoder         : Lavf62.3.100\n  Stream #0:0(und): Video: av1 (AV01 / 0x31305641), yuv420p(tv, progressive), 1920x1080, q=2-31, 3000 kb/s, 50 fps, 1k tbn (default)\n    Metadata:\n      encoder         : Lavc62.11.100 libsvtav1\n      handler_name    : VideoHandler\n      vendor_id       : [0][0][0][0]\n    Side data:\n      cpb: bitrate max/min/avg: 0/0/3000000 buffer size: 3000000 vbv_delay: N/A\nframe=    0 fps=0.0 q=0.0 size=       0KiB time=N/A bitrate=N/A speed=N/A elapsed=0:00:01.05    \nframe=    0 fps=0.0 q=0.0 size=       0KiB time=N/A bitrate=N/A speed=N/A elapsed=0:00:02.36    \nframe=    0 fps=0.0 q=0.0 size=       0KiB time=N/A bitrate=N/A speed=N/A elapsed=0:00:02.93    \nframe=    0 fps=0.0 q=0.0 size=       0KiB time=N/A bitrate=N/A speed=N/A elapsed=0:00:03.55    \nframe=    0 fps=0.0 q=0.0 size=       0KiB time=N/A bitrate=N/A speed=N/A elapsed=0:00:04.14    \nframe=    0 fps=0.0 q=0.0 size=       0KiB time=N/A bitrate=N/A speed=N/A elapsed=0:00:04.70    \nframe=    0 fps=0.0 q=0.0 size=       0KiB time=N/A bitrate=N/A speed=N/A elapsed=0:00:05.24    \nframe=    0 fps=0.0 q=0.0 size=       0KiB time=N/A bitrate=N/A speed=N/A elapsed=0:00:05.80    \nframe=    1 fps=0.2 q=29.0 size=       1KiB time=00:00:00.00 bitrate=N/A speed=   0x elapsed=0:00:06.36    \nframe=    1 fps=0.1 q=29.0 size=       1KiB time=00:00:00.00 bitrate=N/A speed=   0x elapsed=0:00:06.90    \nframe=    1 fps=0.1 q=29.0 size=       1KiB time=00:00:00.00 bitrate=N/A speed=   0x elapsed=0:00:07.48    \nframe=    1 fps=0.1 q=29.0 size=       1KiB time=00:00:00.00 bitrate=N/A speed=   0x elapsed=0:00:08.05    \nframe=    3 fps=0.3 q=45.0 size=       1KiB time=00:00:00.04 bitrate= 142.6kbits/s speed=0.00464x elapsed=0:00:08.61    \nframe=    4 fps=0.4 q=49.0 size=       1KiB time=00:00:00.06 bitrate=  95.1kbits/s speed=0.00652x elapsed=0:00:09.19    \nframe=    6 fps=0.6 q=48.0 size=       1KiB time=00:00:00.10 bitrate=  57.0kbits/s speed=0.0103x elapsed=0:00:09.74    \nframe=    7 fps=0.7 q=43.0 size=       1KiB time=00:00:00.12 bitrate=  47.5kbits/s speed=0.0117x elapsed=0:00:10.28    \nframe=    9 fps=0.8 q=40.0 size=       1KiB time=00:00:00.16 bitrate=  35.6kbits/s speed=0.0148x elapsed=0:00:10.83    \nframe=   11 fps=1.0 q=44.0 size=       1KiB time=00:00:00.20 bitrate=  28.5kbits/s speed=0.0176x elapsed=0:00:11.38    \nframe=   13 fps=1.1 q=42.0 size=       1KiB time=00:00:00.24 bitrate=  23.8kbits/s speed=0.0201x elapsed=0:00:11.91    \nframe=   15 fps=1.2 q=44.0 size=       1KiB time=00:00:00.28 bitrate=  20.4kbits/s speed=0.0224x elapsed=0:00:12.50    \nframe=   17 fps=1.3 q=31.0 size=       1KiB time=00:00:00.32 bitrate=  17.8kbits/s speed=0.0244x elapsed=0:00:13.09    \nframe=   19 fps=1.4 q=44.0 size=       1KiB time=00:00:00.36 bitrate=  15.8kbits/s speed=0.0264x elapsed=0:00:13.61    \nframe=   21 fps=1.5 q=42.0 size=       1KiB time=00:00:00.40 bitrate=  14.3kbits/s speed=0.0283x elapsed=0:00:14.14    \nframe=   22 fps=1.5 q=45.0 size=       1KiB time=00:00:00.42 bitrate=  13.6kbits/s speed=0.0286x elapsed=0:00:14.69    \nframe=   23 fps=1.5 q=44.0 size=       1KiB time=00:00:00.44 bitrate=  13.0kbits/s speed=0.0289x elapsed=0:00:15.24    \nframe=   26 fps=1.6 q=44.0 size=       1KiB time=00:00:00.48 bitrate=  11.9kbits/s speed=0.0303x elapsed=0:00:15.85    \nframe=   27 fps=1.6 q=44.0 size=       1KiB time=00:00:00.52 bitrate=  11.0kbits/s speed=0.0317x elapsed=0:00:16.40    \nframe=   28 fps=1.6 q=44.0 size=       1KiB time=00:00:00.54 bitrate=  10.6kbits/s speed=0.0318x elapsed=0:00:17.00    \nframe=   32 fps=1.8 q=44.0 size=       1KiB time=00:00:00.62 bitrate=   9.2kbits/s speed=0.0353x elapsed=0:00:17.54    \nframe=   33 fps=1.8 q=31.0 size=       1KiB time=00:00:00.64 bitrate=   8.9kbits/s speed=0.0354x elapsed=0:00:18.06    \nframe=   35 fps=1.9 q=45.0 size=       1KiB time=00:00:00.68 bitrate=   8.4kbits/s speed=0.0366x elapsed=0:00:18.57    \nframe=   36 fps=1.9 q=44.0 size=       1KiB time=00:00:00.70 bitrate=   8.1kbits/s speed=0.0365x elapsed=0:00:19.15    \nframe=   38 fps=1.9 q=44.0 size=       1KiB time=00:00:00.74 bitrate=   7.7kbits/s speed=0.0375x elapsed=0:00:19.71    \nframe=   38 fps=1.9 q=44.0 size=       1KiB time=00:00:00.74 bitrate=   7.7kbits/s speed=0.0365x elapsed=0:00:20.25    \nframe=   39 fps=1.9 q=45.0 size=       1KiB time=00:00:00.76 bitrate=   7.5kbits/s speed=0.0366x elapsed=0:00:20.79    \nframe=   42 fps=2.0 q=45.0 size=       1KiB time=00:00:00.82 bitrate=   7.0kbits/s speed=0.0384x elapsed=0:00:21.36    \nframe=   43 fps=2.0 q=45.0 size=       1KiB time=00:00:00.84 bitrate=   6.8kbits/s speed=0.0383x elapsed=0:00:21.93    \nframe=   44 fps=2.0 q=45.0 size=       1KiB time=00:00:00.86 bitrate=   6.6kbits/s speed=0.0383x elapsed=0:00:22.46    \nframe=   48 fps=2.1 q=46.0 size=       1KiB time=00:00:00.94 bitrate=   6.1kbits/s speed=0.0408x elapsed=0:00:23.02    \nframe=   49 fps=2.1 q=30.0 size=       1KiB time=00:00:00.96 bitrate=   5.9kbits/s speed=0.0406x elapsed=0:00:23.64    \nframe=   51 fps=2.1 q=45.0 size=       1KiB time=00:00:01.00 bitrate=   5.7kbits/s speed=0.0413x elapsed=0:00:24.21    \nframe=   52 fps=2.1 q=46.0 size=       1KiB time=00:00:01.02 bitrate=   5.6kbits/s speed=0.0412x elapsed=0:00:24.74    \nframe=   54 fps=2.1 q=46.0 size=       1KiB time=00:00:01.06 bitrate=   5.4kbits/s speed=0.0419x elapsed=0:00:25.28    \nframe=   55 fps=2.1 q=43.0 size=       1KiB time=00:00:01.08 bitrate=   5.3kbits/s speed=0.0418x elapsed=0:00:25.84    \nframe=   57 fps=2.2 q=35.0 size=       1KiB time=00:00:01.10 bitrate=   5.2kbits/s speed=0.0416x elapsed=0:00:26.41    \nframe=   58 fps=2.2 q=48.0 size=       1KiB time=00:00:01.14 bitrate=   5.0kbits/s speed=0.0423x elapsed=0:00:26.96    \nframe=   59 fps=2.1 q=46.0 size=       1KiB time=00:00:01.16 bitrate=   4.9kbits/s speed=0.0422x elapsed=0:00:27.50    \nframe=   61 fps=2.2 q=42.0 size=       1KiB time=00:00:01.20 bitrate=   4.8kbits/s speed=0.0428x elapsed=0:00:28.04    \nframe=   64 fps=2.2 q=45.0 size=       1KiB time=00:00:01.26 bitrate=   4.5kbits/s speed=0.0441x elapsed=0:00:28.59    \nframe=   67 fps=2.3 q=48.0 size=       1KiB time=00:00:01.30 bitrate=   4.4kbits/s speed=0.0446x elapsed=0:00:29.12    \nframe=   68 fps=2.3 q=49.0 size=       1KiB time=00:00:01.34 bitrate=   4.3kbits/s speed=0.0452x elapsed=0:00:29.66    \nframe=   70 fps=2.3 q=49.0 size=       1KiB time=00:00:01.38 bitrate=   4.1kbits/s speed=0.0457x elapsed=0:00:30.18    \nframe=   71 fps=2.3 q=48.0 size=       1KiB time=00:00:01.40 bitrate=   4.1kbits/s speed=0.0456x elapsed=0:00:30.71    \nframe=   74 fps=2.4 q=49.0 size=       1KiB time=00:00:01.46 bitrate=   3.9kbits/s speed=0.0467x elapsed=0:00:31.25    \nframe=   76 fps=2.4 q=46.0 size=       1KiB time=00:00:01.50 bitrate=   3.8kbits/s speed=0.0471x elapsed=0:00:31.81    \nframe=   80 fps=2.5 q=48.0 size=       1KiB time=00:00:01.58 bitrate=   3.6kbits/s speed=0.0488x elapsed=0:00:32.38    \nframe=   83 fps=2.5 q=48.0 size=       1KiB time=00:00:01.64 bitrate=   3.5kbits/s speed=0.0498x elapsed=0:00:32.93    \nframe=   84 fps=2.5 q=49.0 size=       1KiB time=00:00:01.66 bitrate=   3.4kbits/s speed=0.0496x elapsed=0:00:33.44    \nframe=   86 fps=2.5 q=47.0 size=       1KiB time=00:00:01.70 bitrate=   3.4kbits/s speed=0.05x elapsed=0:00:33.97    \nframe=   87 fps=2.5 q=44.0 size=       1KiB time=00:00:01.72 bitrate=   3.3kbits/s speed=0.0498x elapsed=0:00:34.55    \nframe=   89 fps=2.5 q=42.0 size=       1KiB time=00:00:01.76 bitrate=   3.2kbits/s speed=0.0502x elapsed=0:00:35.08    \nframe=   91 fps=2.6 q=47.0 size=       1KiB time=00:00:01.80 bitrate=   3.2kbits/s speed=0.0505x elapsed=0:00:35.61    \nframe=   92 fps=2.5 q=46.0 size=       1KiB time=00:00:01.82 bitrate=   3.1kbits/s speed=0.0504x elapsed=0:00:36.13    \nframe=   96 fps=2.6 q=48.0 size=       1KiB time=00:00:01.90 bitrate=   3.0kbits/s speed=0.0517x elapsed=0:00:36.72    \nframe=   98 fps=2.6 q=49.0 size=       1KiB time=00:00:01.94 bitrate=   2.9kbits/s speed=0.052x elapsed=0:00:37.30    \nframe=  100 fps=2.6 q=49.0 size=       1KiB time=00:00:01.96 bitrate=   2.9kbits/s speed=0.0518x elapsed=0:00:37.81    \nframe=  102 fps=2.7 q=47.0 size=       1KiB time=00:00:02.02 bitrate=   2.8kbits/s speed=0.0526x elapsed=0:00:38.37    \nframe=  103 fps=2.6 q=44.0 size=       1KiB time=00:00:02.04 bitrate=   2.8kbits/s speed=0.0524x elapsed=0:00:38.93    \nframe=  104 fps=2.6 q=47.0 size=       1KiB time=00:00:02.06 bitrate=   2.8kbits/s speed=0.0522x elapsed=0:00:39.45    \nframe=  107 fps=2.7 q=47.0 size=       1KiB time=00:00:02.12 bitrate=   2.7kbits/s speed=0.053x elapsed=0:00:39.99    \nframe=  108 fps=2.7 q=46.0 size=       1KiB time=00:00:02.14 bitrate=   2.7kbits/s speed=0.0528x elapsed=0:00:40.55    \nframe=  112 fps=2.7 q=48.0 size=       1KiB time=00:00:02.22 bitrate=   2.6kbits/s speed=0.054x elapsed=0:00:41.08    \nframe=  114 fps=2.7 q=49.0 size=       1KiB time=00:00:02.26 bitrate=   2.5kbits/s speed=0.0543x elapsed=0:00:41.64    \nframe=  116 fps=2.8 q=49.0 size=       1KiB time=00:00:02.30 bitrate=   2.5kbits/s speed=0.0545x elapsed=0:00:42.17    \nframe=  118 fps=2.8 q=49.0 size=       1KiB time=00:00:02.34 bitrate=   2.4kbits/s speed=0.0548x elapsed=0:00:42.68    \nframe=  119 fps=2.7 q=48.0 size=       1KiB time=00:00:02.36 bitrate=   2.4kbits/s speed=0.0545x elapsed=0:00:43.30    \nframe=  122 fps=2.8 q=48.0 size=       1KiB time=00:00:02.42 bitrate=   2.4kbits/s speed=0.0551x elapsed=0:00:43.89    \nframe=  123 fps=2.8 q=46.0 size=       1KiB time=00:00:02.44 bitrate=   2.3kbits/s speed=0.0548x elapsed=0:00:44.48    \nframe=  128 fps=2.8 q=47.0 size=       1KiB time=00:00:02.54 bitrate=   2.2kbits/s speed=0.0564x elapsed=0:00:45.02    \nframe=  131 fps=2.9 q=47.0 size=       1KiB time=00:00:02.60 bitrate=   2.2kbits/s speed=0.057x elapsed=0:00:45.58    \nframe=  132 fps=2.9 q=48.0 size=       1KiB time=00:00:02.62 bitrate=   2.2kbits/s speed=0.0568x elapsed=0:00:46.12    \nframe=  134 fps=2.9 q=48.0 size=       1KiB time=00:00:02.66 bitrate=   2.1kbits/s speed=0.057x elapsed=0:00:46.68    \nframe=  135 fps=2.9 q=47.0 size=       1KiB time=00:00:02.68 bitrate=   2.1kbits/s speed=0.0567x elapsed=0:00:47.24    \nframe=  138 fps=2.9 q=48.0 size=       1KiB time=00:00:02.74 bitrate=   2.1kbits/s speed=0.0573x elapsed=0:00:47.78    \nframe=  139 fps=2.9 q=46.0 size=       1KiB time=00:00:02.76 bitrate=   2.1kbits/s speed=0.057x elapsed=0:00:48.44    \nframe=  141 fps=2.9 q=43.0 size=       1KiB time=00:00:02.78 bitrate=   2.1kbits/s speed=0.0566x elapsed=0:00:49.12    \nframe=  143 fps=2.9 q=45.0 size=       1KiB time=00:00:02.84 bitrate=   2.0kbits/s speed=0.057x elapsed=0:00:49.81    \nframe=  145 fps=2.9 q=33.0 size=       1KiB time=00:00:02.88 bitrate=   2.0kbits/s speed=0.057x elapsed=0:00:50.49    \nframe=  147 fps=2.9 q=47.0 size=       1KiB time=00:00:02.90 bitrate=   2.0kbits/s speed=0.0567x elapsed=0:00:51.10    \nframe=  147 fps=2.8 q=47.0 size=       1KiB time=00:00:02.92 bitrate=   2.0kbits/s speed=0.0565x elapsed=0:00:51.70    \nframe=  149 fps=2.8 q=45.0 size=       1KiB time=00:00:02.96 bitrate=   1.9kbits/s speed=0.0566x elapsed=0:00:52.34    \nframe=  151 fps=2.9 q=43.0 size=       1KiB time=00:00:03.00 bitrate=   1.9kbits/s speed=0.0566x elapsed=0:00:52.96    \nframe=  153 fps=2.9 q=41.0 size=       1KiB time=00:00:03.02 bitrate=   1.9kbits/s speed=0.0564x elapsed=0:00:53.56    \nframe=  157 fps=2.9 q=42.0 size=       1KiB time=00:00:03.12 bitrate=   1.8kbits/s speed=0.0575x elapsed=0:00:54.22    \nframe=  157 fps=2.9 q=42.0 size=       1KiB time=00:00:03.12 bitrate=   1.8kbits/s speed=0.0569x elapsed=0:00:54.79    \nframe=  159 fps=2.9 q=45.0 size=       1KiB time=00:00:03.16 bitrate=   1.8kbits/s speed=0.0571x elapsed=0:00:55.33    \nframe=  161 fps=2.9 q=33.0 size=       1KiB time=00:00:03.20 bitrate=   1.8kbits/s speed=0.0572x elapsed=0:00:55.90    \nframe=  165 fps=2.9 q=45.0 size=       1KiB time=00:00:03.28 bitrate=   1.7kbits/s speed=0.0581x elapsed=0:00:56.44    \nframe=  169 fps=3.0 q=40.0 size=       1KiB time=00:00:03.36 bitrate=   1.7kbits/s speed=0.059x elapsed=0:00:56.97    \nframe=  171 fps=3.0 q=46.0 size=       1KiB time=00:00:03.40 bitrate=   1.7kbits/s speed=0.0591x elapsed=0:00:57.52    \nframe=  173 fps=3.0 q=43.0 size=       1KiB time=00:00:03.44 bitrate=   1.7kbits/s speed=0.0592x elapsed=0:00:58.07    \nframe=  177 fps=3.0 q=31.0 size=       1KiB time=00:00:03.52 bitrate=   1.6kbits/s speed=0.06x elapsed=0:00:58.64    \nframe=  183 fps=3.1 q=44.0 size=       1KiB time=00:00:03.64 bitrate=   1.6kbits/s speed=0.0615x elapsed=0:00:59.17    \nframe=  185 fps=3.1 q=41.0 size=       1KiB time=00:00:03.68 bitrate=   1.6kbits/s speed=0.0616x elapsed=0:00:59.69    \nframe=  189 fps=3.1 q=43.0 size=       1KiB time=00:00:03.76 bitrate=   1.5kbits/s speed=0.0624x elapsed=0:01:00.24    \nframe=  193 fps=3.2 q=33.0 size=       1KiB time=00:00:03.84 bitrate=   1.5kbits/s speed=0.0632x elapsed=0:01:00.77    \nframe=  197 fps=3.2 q=46.0 size=       1KiB time=00:00:03.92 bitrate=   1.5kbits/s speed=0.0639x elapsed=0:01:01.30    \nframe=  201 fps=3.3 q=42.0 size=       1KiB time=00:00:04.00 bitrate=   1.4kbits/s speed=0.0647x elapsed=0:01:01.82    \nframe=  201 fps=3.2 q=42.0 size=       1KiB time=00:00:04.00 bitrate=   1.4kbits/s speed=0.0642x elapsed=0:01:02.33    \nframe=  205 fps=3.3 q=43.0 size=       1KiB time=00:00:04.08 bitrate=   1.4kbits/s speed=0.0649x elapsed=0:01:02.87    \nframe=  209 fps=3.3 q=33.0 size=       1KiB time=00:00:04.16 bitrate=   1.4kbits/s speed=0.0656x elapsed=0:01:03.41    \nframe=  213 fps=3.3 q=46.0 size=       1KiB time=00:00:04.24 bitrate=   1.3kbits/s speed=0.0663x elapsed=0:01:03.94    \nframe=  217 fps=3.4 q=42.0 size=       1KiB time=00:00:04.32 bitrate=   1.3kbits/s speed=0.067x elapsed=0:01:04.47    \nframe=  217 fps=3.3 q=42.0 size=       1KiB time=00:00:04.32 bitrate=   1.3kbits/s speed=0.0665x elapsed=0:01:04.99    \nframe=  223 fps=3.4 q=48.0 size=       1KiB time=00:00:04.44 bitrate=   1.3kbits/s speed=0.0678x elapsed=0:01:05.51    \nframe=  227 fps=3.4 q=50.0 size=       1KiB time=00:00:04.52 bitrate=   1.3kbits/s speed=0.0685x elapsed=0:01:06.01    \nframe=  233 fps=3.5 q=45.0 size=       1KiB time=00:00:04.64 bitrate=   1.2kbits/s speed=0.0697x elapsed=0:01:06.54    \nframe=  235 fps=3.5 q=50.0 size=       1KiB time=00:00:04.64 bitrate=   1.2kbits/s speed=0.0692x elapsed=0:01:07.06    \nframe=  239 fps=3.5 q=50.0 size=       1KiB time=00:00:04.76 bitrate=   1.2kbits/s speed=0.0704x elapsed=0:01:07.63    \n[out#0/matroska @ 00000165c27de9c0] video:1813KiB audio:0KiB subtitle:0KiB other streams:0KiB global headers:0KiB muxing overhead: 0.103142%\nframe=  250 fps=3.7 q=50.0 Lsize=    1815KiB time=00:00:04.98 bitrate=2985.7kbits/s speed=0.0733x elapsed=0:01:07.97    \n",
  "seconds": 68.46731495857239,
  "probe_out": {}
}